<?xml version="1.0" encoding="utf-8"?>
<!-- Generator: Adobe Illustrator 24.2.0, SVG Export Plug-In . SVG Version: 6.00 Build 0)  -->
<svg version="1.1" xmlns="http://www.w3.org/2000/svg" xmlns:xlink="http://www.w3.org/1999/xlink" x="0px" y="0px"
	 viewBox="0 0 300 300" style="enable-background:new 0 0 300 300;" xml:space="preserve">
<style type="text/css">
	.st0{fill:#B47778;}
	.st1{font-family:'ArialNarrow';}
	.st2{font-size:225px;}
	.st3{font-size:205px;}
</style>
<g id="レイヤー_1">
	<g>
		<path class="st0" d="M280,18c1.1,0,2,0.9,2,2v260c0,1.1-0.9,2-2,2H20c-1.1,0-2-0.9-2-2V20c0-1.1,0.9-2,2-2H280 M280,0H20
			C8.95,0,0,8.95,0,20v260c0,11.05,8.95,20,20,20h260c11.05,0,20-8.95,20-20V20C300,8.95,291.05,0,280,0L280,0z"/>
	</g>
</g>
<g id="レイヤー_2">
	<text transform="matrix(1 0 0 1 20.1177 231.4033)" class="st0 st1 st2">D</text>
	<text transform="matrix(1 0 0 1 147.1514 231.1094)" class="st0 st1 st3">w</text>
</g>
</svg>
