<?xml version="1.0" encoding="utf-8"?>
<!-- Generator: Adobe Illustrator 24.2.1, SVG Export Plug-In . SVG Version: 6.00 Build 0)  -->
<svg version="1.1" id="Capa_1" xmlns="http://www.w3.org/2000/svg" xmlns:xlink="http://www.w3.org/1999/xlink" x="0px" y="0px"
	 viewBox="0 0 512 512" style="enable-background:new 0 0 512 512;" xml:space="preserve">
<style type="text/css">
	.st0{fill:#333333;}
</style>
<g>
	<g>
		<path class="st0" d="M136,151H91v210h45c41.4,0,75-33.6,75-75v-60C211,184.6,177.4,151,136,151z"/>
	</g>
</g>
<g>
	<g>
		<g>
			<path d="M403.1,325.6L403.1,325.6C403.2,325.8,403.2,325.7,403.1,325.6z"/>
			<path class="st0" d="M467,0H45C20.2,0,0,20.2,0,45v422c0,24.8,20.2,45,45,45h422c24.8,0,45-20.2,45-45V45C512,20.2,491.8,0,467,0
				z M241,286c0,57.9-47.1,105-105,105H76c-8.3,0-15-6.7-15-15V136c0-8.3,6.7-15,15-15h60c57.9,0,105,47.1,105,105V286z
				 M450.5,259.6l-30,120c-1.6,6.4-7.1,11-13.7,11.3c-0.3,0-0.6,0-0.9,0c-6.2,0-11.8-3.9-14-9.7l-31-82.5l-31,82.5
				c-2.2,5.9-7.8,9.7-14,9.7c-0.3,0-0.6,0-0.9,0c-6.6-0.4-12.1-5-13.7-11.3l-30-120c-2-8,2.9-16.2,10.9-18.2
				c8-2.1,16.2,2.9,18.2,10.9l18.3,73.3l28.1-74.9c8.6-14.3,23.2-11.6,27.8-0.4c1.2,2.9,27.3,72.2,28.4,75.3l18.3-73.2
				c2-8.1,10.1-13,18.2-10.9C447.7,243.5,452.6,251.6,450.5,259.6z"/>
		</g>
	</g>
</g>
</svg>
