<?xml version="1.0" encoding="utf-8"?>
<!-- Generator: Adobe Illustrator 24.2.1, SVG Export Plug-In . SVG Version: 6.00 Build 0)  -->
<svg version="1.1" id="Capa_1" xmlns="http://www.w3.org/2000/svg" xmlns:xlink="http://www.w3.org/1999/xlink" x="0px" y="0px"
	 viewBox="0 0 512 512" style="enable-background:new 0 0 512 512;" xml:space="preserve">
<style type="text/css">
	.st0{fill:#333333;}
</style>
<g>
	<g>
		<path class="st0" d="M196,151h-75v90h75c24.8,0,45-20.2,45-45S220.8,151,196,151z"/>
	</g>
</g>
<g>
	<g>
		<path class="st0" d="M467,0H45C20.2,0,0,20.2,0,45v422c0,24.8,20.2,45,45,45h422c24.8,0,45-20.2,45-45V45C512,20.2,491.8,0,467,0z
			 M196,271h-75v105c0,8.3-6.7,15-15,15s-15-6.7-15-15c0-3.4,0-231.4,0-240c0-8.3,6.7-15,15-15h90c41.4,0,75,33.6,75,75
			S237.4,271,196,271z M361,271c33.1,0,60,26.9,60,60s-26.9,60-60,60s-60-26.9-60-60c0-8.3,6.7-15,15-15c8.3,0,15,6.7,15,15
			c0,16.5,13.5,30,30,30s30-13.5,30-30s-13.5-30-30-30c-33.1,0-60-26.9-60-60s26.9-60,60-60s60,26.9,60,60c0,8.3-6.7,15-15,15
			c-8.3,0-15-6.7-15-15c0-16.5-13.5-30-30-30s-30,13.5-30,30S344.5,271,361,271z"/>
	</g>
</g>
</svg>
